<mxfile host="drawio-plugin" modified="2023-11-15T15:58:48.589Z" agent="5.0 (Windows NT 10.0; Win64; x64) AppleWebKit/537.36 (KHTML, like Gecko) Chrome/111.0.0.0 Safari/537.36" etag="1PZE0zo1KRD4NfJRhUjf" version="20.5.3" type="embed"><diagram name="Страница — 1" id="zIB3W_TbogQPLzdRL6OD"><mxGraphModel dx="306" dy="460" grid="1" gridSize="10" guides="1" tooltips="1" connect="1" arrows="1" fold="1" page="1" pageScale="1" pageWidth="827" pageHeight="1169" math="0" shadow="0"><root><mxCell id="0"/><mxCell id="1" parent="0"/><mxCell id="z51tVYS18Co3PqWNpEYj-22" value="" style="rounded=0;whiteSpace=wrap;html=1;fillColor=none;dashed=1;" parent="1" vertex="1"><mxGeometry x="120" y="142.5" width="560" height="155" as="geometry"/></mxCell><mxCell id="z51tVYS18Co3PqWNpEYj-26" style="edgeStyle=orthogonalEdgeStyle;rounded=0;orthogonalLoop=1;jettySize=auto;html=1;startArrow=diamondThin;startFill=0;endArrow=open;endFill=0;" parent="1" source="z51tVYS18Co3PqWNpEYj-1" target="z51tVYS18Co3PqWNpEYj-5" edge="1"><mxGeometry relative="1" as="geometry"/></mxCell><mxCell id="z51tVYS18Co3PqWNpEYj-1" value="&lt;b&gt;Document&lt;/b&gt;" style="swimlane;fontStyle=0;childLayout=stackLayout;horizontal=1;startSize=30;horizontalStack=0;resizeParent=1;resizeParentMax=0;resizeLast=0;collapsible=1;marginBottom=0;whiteSpace=wrap;html=1;" parent="1" vertex="1"><mxGeometry x="195" y="160" width="150" height="120" as="geometry"/></mxCell><mxCell id="z51tVYS18Co3PqWNpEYj-2" value="- Format: format" style="text;strokeColor=none;fillColor=none;align=left;verticalAlign=middle;spacingLeft=4;spacingRight=4;overflow=hidden;points=[[0,0.5],[1,0.5]];portConstraint=eastwest;rotatable=0;whiteSpace=wrap;html=1;" parent="z51tVYS18Co3PqWNpEYj-1" vertex="1"><mxGeometry y="30" width="150" height="30" as="geometry"/></mxCell><mxCell id="z51tVYS18Co3PqWNpEYj-3" value="+ getContent()" style="text;strokeColor=none;fillColor=none;align=left;verticalAlign=middle;spacingLeft=4;spacingRight=4;overflow=hidden;points=[[0,0.5],[1,0.5]];portConstraint=eastwest;rotatable=0;whiteSpace=wrap;html=1;" parent="z51tVYS18Co3PqWNpEYj-1" vertex="1"><mxGeometry y="60" width="150" height="30" as="geometry"/></mxCell><mxCell id="z51tVYS18Co3PqWNpEYj-4" value="+ getFormattedContent()" style="text;strokeColor=none;fillColor=none;align=left;verticalAlign=middle;spacingLeft=4;spacingRight=4;overflow=hidden;points=[[0,0.5],[1,0.5]];portConstraint=eastwest;rotatable=0;whiteSpace=wrap;html=1;" parent="z51tVYS18Co3PqWNpEYj-1" vertex="1"><mxGeometry y="90" width="150" height="30" as="geometry"/></mxCell><mxCell id="z51tVYS18Co3PqWNpEYj-5" value="&lt;b&gt;Format&lt;/b&gt;" style="swimlane;fontStyle=0;childLayout=stackLayout;horizontal=1;startSize=30;horizontalStack=0;resizeParent=1;resizeParentMax=0;resizeLast=0;collapsible=1;marginBottom=0;whiteSpace=wrap;html=1;" parent="1" vertex="1"><mxGeometry x="490" y="190" width="140" height="60" as="geometry"/></mxCell><mxCell id="z51tVYS18Co3PqWNpEYj-6" value="+ format(String)" style="text;strokeColor=none;fillColor=none;align=left;verticalAlign=middle;spacingLeft=4;spacingRight=4;overflow=hidden;points=[[0,0.5],[1,0.5]];portConstraint=eastwest;rotatable=0;whiteSpace=wrap;html=1;" parent="z51tVYS18Co3PqWNpEYj-5" vertex="1"><mxGeometry y="30" width="140" height="30" as="geometry"/></mxCell><mxCell id="z51tVYS18Co3PqWNpEYj-15" style="edgeStyle=orthogonalEdgeStyle;rounded=0;orthogonalLoop=1;jettySize=auto;html=1;endArrow=block;endFill=0;" parent="1" source="z51tVYS18Co3PqWNpEYj-9" target="z51tVYS18Co3PqWNpEYj-1" edge="1"><mxGeometry relative="1" as="geometry"/></mxCell><mxCell id="z51tVYS18Co3PqWNpEYj-9" value="Letter" style="rounded=0;whiteSpace=wrap;html=1;" parent="1" vertex="1"><mxGeometry x="140" y="330" width="120" height="30" as="geometry"/></mxCell><mxCell id="z51tVYS18Co3PqWNpEYj-14" style="edgeStyle=orthogonalEdgeStyle;rounded=0;orthogonalLoop=1;jettySize=auto;html=1;endArrow=block;endFill=0;" parent="1" source="z51tVYS18Co3PqWNpEYj-10" target="z51tVYS18Co3PqWNpEYj-1" edge="1"><mxGeometry relative="1" as="geometry"/></mxCell><mxCell id="z51tVYS18Co3PqWNpEYj-10" value="Report" style="rounded=0;whiteSpace=wrap;html=1;" parent="1" vertex="1"><mxGeometry x="210" y="370" width="120" height="30" as="geometry"/></mxCell><mxCell id="z51tVYS18Co3PqWNpEYj-13" style="edgeStyle=orthogonalEdgeStyle;rounded=0;orthogonalLoop=1;jettySize=auto;html=1;endArrow=block;endFill=0;" parent="1" source="z51tVYS18Co3PqWNpEYj-11" target="z51tVYS18Co3PqWNpEYj-1" edge="1"><mxGeometry relative="1" as="geometry"/></mxCell><mxCell id="z51tVYS18Co3PqWNpEYj-11" value="TimeTable" style="rounded=0;whiteSpace=wrap;html=1;" parent="1" vertex="1"><mxGeometry x="280" y="330" width="120" height="30" as="geometry"/></mxCell><mxCell id="z51tVYS18Co3PqWNpEYj-19" style="edgeStyle=orthogonalEdgeStyle;rounded=0;orthogonalLoop=1;jettySize=auto;html=1;dashed=1;endArrow=block;endFill=0;" parent="1" source="z51tVYS18Co3PqWNpEYj-16" target="z51tVYS18Co3PqWNpEYj-5" edge="1"><mxGeometry relative="1" as="geometry"/></mxCell><mxCell id="z51tVYS18Co3PqWNpEYj-16" value="TXTFormat" style="rounded=0;whiteSpace=wrap;html=1;" parent="1" vertex="1"><mxGeometry x="430" y="330" width="120" height="30" as="geometry"/></mxCell><mxCell id="z51tVYS18Co3PqWNpEYj-20" style="edgeStyle=orthogonalEdgeStyle;rounded=0;orthogonalLoop=1;jettySize=auto;html=1;dashed=1;endArrow=block;endFill=0;" parent="1" source="z51tVYS18Co3PqWNpEYj-17" target="z51tVYS18Co3PqWNpEYj-5" edge="1"><mxGeometry relative="1" as="geometry"/></mxCell><mxCell id="z51tVYS18Co3PqWNpEYj-17" value="PDFFormat" style="rounded=0;whiteSpace=wrap;html=1;" parent="1" vertex="1"><mxGeometry x="580" y="330" width="120" height="30" as="geometry"/></mxCell><mxCell id="z51tVYS18Co3PqWNpEYj-21" style="edgeStyle=orthogonalEdgeStyle;rounded=0;orthogonalLoop=1;jettySize=auto;html=1;endArrow=block;endFill=0;dashed=1;" parent="1" source="z51tVYS18Co3PqWNpEYj-18" target="z51tVYS18Co3PqWNpEYj-5" edge="1"><mxGeometry relative="1" as="geometry"/></mxCell><mxCell id="z51tVYS18Co3PqWNpEYj-18" value="HTMLFormat" style="rounded=0;whiteSpace=wrap;html=1;" parent="1" vertex="1"><mxGeometry x="500" y="370" width="120" height="30" as="geometry"/></mxCell><mxCell id="z51tVYS18Co3PqWNpEYj-25" style="edgeStyle=orthogonalEdgeStyle;rounded=0;orthogonalLoop=1;jettySize=auto;html=1;endArrow=open;endFill=0;" parent="1" source="z51tVYS18Co3PqWNpEYj-23" target="z51tVYS18Co3PqWNpEYj-1" edge="1"><mxGeometry relative="1" as="geometry"/></mxCell><mxCell id="z51tVYS18Co3PqWNpEYj-23" value="Formatting" style="rounded=0;whiteSpace=wrap;html=1;" parent="1" vertex="1"><mxGeometry x="210" y="110" width="120" height="20" as="geometry"/></mxCell></root></mxGraphModel></diagram></mxfile>